<svg xmlns="http://www.w3.org/2000/svg" width="32" height="32" viewBox="0 0 32 32">
  <g id="グループ_1" data-name="グループ 1" transform="translate(-1040 -1992)">
    <rect id="長方形_15" data-name="長方形 15" width="32" height="32" transform="translate(1040 1992)" fill="none"/>
    <path id="パス_4" data-name="パス 4" d="M177.769,166.939c.012-.018.026-.034.038-.051a13.108,13.108,0,0,1-2.97.907c-.247.037-.5.069-.748.088a6.582,6.582,0,0,0,2.459-2.709,7.089,7.089,0,0,0,.393-.855l-.038.021c.005-.017.016-.032.021-.05a13.144,13.144,0,0,1-4.167,1.592,6.558,6.558,0,0,0-11.2,5.864c.006.04.009.08.015.12a18.6,18.6,0,0,1-12.284-5.489c-.421-.43-.828-.877-1.207-1.35l0,.01-.024-.027a6.548,6.548,0,0,0,1.174,8.064,7.033,7.033,0,0,0,.808.693,6.539,6.539,0,0,1-2.924-.816c0,.027,0,.055,0,.083a6.548,6.548,0,0,0,3.829,5.944,6.671,6.671,0,0,0,1.378.5,6.571,6.571,0,0,1-1.671.219,6.489,6.489,0,0,1-1.09-.1c-.036-.01-.077-.013-.112-.024l.006.014c-.012,0-.026,0-.038,0a6.574,6.574,0,0,0,5.08,4.454,6.837,6.837,0,0,0,1.022.124,13.166,13.166,0,0,1-8.122,2.789c-.426,0-.843-.034-1.258-.074-.1-.017-.2-.023-.289-.047l.056.033c-.024,0-.049,0-.073,0a18.573,18.573,0,0,0,10.06,2.948,17.958,17.958,0,0,0,14.8-7.253c.01-.014.022-.027.032-.04.3-.4.576-.819.842-1.241.055-.086.115-.168.168-.255.245-.4.466-.817.679-1.234.053-.1.114-.2.165-.309q.373-.761.675-1.545l.008-.018a18.917,18.917,0,0,0,1.3-6.775q0-.427-.019-.849a13.33,13.33,0,0,0,2.7-2.616c.2-.246.4-.493.588-.751Z" transform="translate(894.18 1831.189)" fill="#fff"/>
  </g>
</svg>
