<svg xmlns="http://www.w3.org/2000/svg" width="32" height="32" viewBox="0 0 32 32">
  <g id="グループ_2" data-name="グループ 2" transform="translate(-996 -1928)">
    <g id="動画再生ボタン" transform="translate(996 1871)">
      <path id="パス_3" data-name="パス 3" d="M30.169,63.363C28.529,62.039,22.747,61,16,61S3.471,62.039,1.831,63.363C.324,64.578,0,70.07,0,73.188S.324,81.8,1.831,83.012C3.471,84.336,9.253,85.375,16,85.375s12.529-1.039,14.169-2.363C31.676,81.8,32,76.3,32,73.188S31.676,64.578,30.169,63.363ZM20.8,73.338l-7.428,4.434a.175.175,0,0,1-.265-.15V68.754a.175.175,0,0,1,.265-.15L20.8,73.037a.174.174,0,0,1,.085.15A.176.176,0,0,1,20.8,73.338Z" fill="#fff"/>
    </g>
    <rect id="長方形_16" data-name="長方形 16" width="32" height="32" transform="translate(996 1928)" fill="none"/>
  </g>
</svg>
